<svg width="16" height="21" viewBox="0 0 16 21" fill="none" xmlns="http://www.w3.org/2000/svg">
<path d="M15.2381 16.6091H14.6667V8.49545C14.6667 5.1283 12.1833 2.3458 8.95238 1.88284V0.954545C8.95238 0.427159 8.52619 0 8 0C7.47381 0 7.04762 0.427159 7.04762 0.954545V1.88284C3.81667 2.3458 1.33333 5.1283 1.33333 8.49545V16.6091H0.761905C0.340476 16.6091 0 16.9503 0 17.3727V18.1364C0 18.2414 0.0857143 18.3273 0.190476 18.3273H5.33333C5.33333 19.802 6.52857 21 8 21C9.47143 21 10.6667 19.802 10.6667 18.3273H15.8095C15.9143 18.3273 16 18.2414 16 18.1364V17.3727C16 16.9503 15.6595 16.6091 15.2381 16.6091ZM8 19.4727C7.36905 19.4727 6.85714 18.9597 6.85714 18.3273H9.14286C9.14286 18.9597 8.63095 19.4727 8 19.4727ZM3.04762 16.6091V8.49545C3.04762 7.16864 3.5619 5.92295 4.49762 4.98511C5.43333 4.04727 6.67619 3.53182 8 3.53182C9.32381 3.53182 10.5667 4.04727 11.5024 4.98511C12.4381 5.92295 12.9524 7.16864 12.9524 8.49545V16.6091H3.04762Z" fill="#30A2FF"/>
</svg>
