<svg width="24" height="24" viewBox="0 0 24 24" fill="none" xmlns="http://www.w3.org/2000/svg">
<path d="M12.245 9.81821V14.4655H18.835C18.5456 15.9601 17.6772 17.2256 16.3748 18.0765L20.3489 21.0983C22.6643 19.0038 24.0001 15.9274 24.0001 12.2729C24.0001 11.422 23.9222 10.6037 23.7774 9.81834L12.245 9.81821Z" fill="#4285F4"/>
<path d="M5.3825 14.2841L4.48621 14.9565L1.3136 17.3783C3.32845 21.2946 7.45803 24.0001 12.2447 24.0001C15.5507 24.0001 18.3225 22.931 20.3485 21.0983L16.3745 18.0765C15.2836 18.7965 13.8921 19.2329 12.2447 19.2329C9.06099 19.2329 6.35605 17.1274 5.38751 14.291L5.3825 14.2841Z" fill="#34A853"/>
<path d="M1.3137 6.62186C0.478861 8.23634 0.000244141 10.0582 0.000244141 12C0.000244141 13.9418 0.478861 15.7637 1.3137 17.3781C1.3137 17.389 5.388 14.2799 5.388 14.2799C5.14311 13.5599 4.99835 12.7963 4.99835 11.9999C4.99835 11.2034 5.14311 10.4398 5.388 9.71981L1.3137 6.62186Z" fill="#FBBC05"/>
<path d="M12.2449 4.7782C14.0483 4.7782 15.6512 5.3891 16.9314 6.56731L20.4379 3.13097C18.3117 1.18917 15.5511 0 12.2449 0C7.45829 0 3.32845 2.69456 1.3136 6.62186L5.38778 9.72007C6.35619 6.88366 9.06124 4.7782 12.2449 4.7782Z" fill="#EA4335"/>
</svg>
