<svg width="22" height="22" viewBox="0 0 22 22" fill="none" xmlns="http://www.w3.org/2000/svg">
<path d="M21.0915 5.39196C20.7624 4.6299 20.2878 3.93934 19.6944 3.35892C19.1005 2.77677 18.4004 2.31414 17.6319 1.9962C16.8351 1.6652 15.9805 1.49577 15.1176 1.49776C13.9071 1.49776 12.7261 1.82923 11.6998 2.45535C11.4542 2.60513 11.221 2.76963 11 2.94888C10.779 2.76963 10.5458 2.60513 10.3002 2.45535C9.27388 1.82923 8.09286 1.49776 6.88237 1.49776C6.01071 1.49776 5.16607 1.66472 4.36808 1.9962C3.5971 2.31539 2.90223 2.77454 2.30558 3.35892C1.71138 3.93868 1.23671 4.62941 0.908482 5.39196C0.567187 6.18504 0.392857 7.02722 0.392857 7.89396C0.392857 8.7116 0.559821 9.56361 0.891294 10.4303C1.16875 11.1547 1.56652 11.906 2.07478 12.6647C2.88013 13.8654 3.9875 15.1176 5.3625 16.387C7.64107 18.4913 9.89754 19.9449 9.9933 20.0038L10.5752 20.377C10.833 20.5415 11.1645 20.5415 11.4223 20.377L12.0042 20.0038C12.1 19.9424 14.354 18.4913 16.635 16.387C18.01 15.1176 19.1174 13.8654 19.9228 12.6647C20.431 11.906 20.8312 11.1547 21.1063 10.4303C21.4377 9.56361 21.6047 8.7116 21.6047 7.89396C21.6071 7.02722 21.4328 6.18504 21.0915 5.39196ZM11 18.4348C11 18.4348 2.25893 12.8341 2.25893 7.89396C2.25893 5.39196 4.32879 3.36383 6.88237 3.36383C8.67723 3.36383 10.2339 4.36562 11 5.82901C11.7661 4.36562 13.3228 3.36383 15.1176 3.36383C17.6712 3.36383 19.7411 5.39196 19.7411 7.89396C19.7411 12.8341 11 18.4348 11 18.4348Z" fill="#30A2FF"/>
</svg>
