<svg width="18" height="20" viewBox="0 0 18 20" fill="none" xmlns="http://www.w3.org/2000/svg">
<path d="M17.2938 16.3216C16.8423 15.1989 16.1871 14.1792 15.3646 13.3191C14.5446 12.4566 13.5733 11.7689 12.5042 11.294C12.4947 11.2889 12.4851 11.2864 12.4755 11.2814C13.9667 10.1508 14.9361 8.30904 14.9361 6.23116C14.9361 2.78894 12.2792 0 9 0C5.72077 0 3.06387 2.78894 3.06387 6.23116C3.06387 8.30904 4.03328 10.1508 5.52449 11.2839C5.51492 11.2889 5.50534 11.2915 5.49577 11.2965C4.42343 11.7714 3.46121 12.4523 2.63541 13.3216C1.81371 14.1823 1.15857 15.2019 0.706172 16.3241C0.261734 17.4227 0.0220377 18.6006 5.98544e-05 19.794C-0.00057901 19.8208 0.00390188 19.8475 0.0132386 19.8724C0.0225753 19.8974 0.036579 19.9202 0.0544243 19.9394C0.0722696 19.9586 0.0935956 19.9738 0.117146 19.9842C0.140696 19.9946 0.165993 20 0.191548 20H1.62771C1.73303 20 1.8168 19.9121 1.8192 19.804C1.86707 17.8643 2.60908 16.0477 3.92078 14.6709C5.27795 13.2462 7.08033 12.4623 9 12.4623C10.9197 12.4623 12.722 13.2462 14.0792 14.6709C15.3909 16.0477 16.1329 17.8643 16.1808 19.804C16.1832 19.9146 16.267 20 16.3723 20H17.8085C17.834 20 17.8593 19.9946 17.8829 19.9842C17.9064 19.9738 17.9277 19.9586 17.9456 19.9394C17.9634 19.9202 17.9774 19.8974 17.9868 19.8724C17.9961 19.8475 18.0006 19.8208 17.9999 19.794C17.976 18.593 17.739 17.4246 17.2938 16.3216ZM9 10.5528C7.90134 10.5528 6.8673 10.103 6.08938 9.28643C5.31146 8.46985 4.88301 7.38442 4.88301 6.23116C4.88301 5.07789 5.31146 3.99246 6.08938 3.17588C6.8673 2.3593 7.90134 1.90955 9 1.90955C10.0987 1.90955 11.1327 2.3593 11.9106 3.17588C12.6885 3.99246 13.117 5.07789 13.117 6.23116C13.117 7.38442 12.6885 8.46985 11.9106 9.28643C11.1327 10.103 10.0987 10.5528 9 10.5528Z" fill="#30A2FF"/>
</svg>
